<svg height="512pt" viewBox="-92 0 512 512" width="512pt" xmlns="http://www.w3.org/2000/svg"><path d="m323.921875 493.234375-9.523437-170.980469c-.71875-12.914062-9.75-23.859375-22.289063-27.015625l-40.914063-10.296875c-5.460937-1.375-10.863281-2.972656-16.226562-4.683594-12.574219 26.304688-39.445312 44.523438-70.496094 44.523438-31.070312 0-57.953125-18.238281-70.519531-44.570312-5.714844 1.871093-11.496094 3.546874-17.328125 5.011718l-39.792969 10.015625c-12.539062 3.15625-21.570312 14.101563-22.289062 27.015625l-9.527344 170.980469c-.414063 7.476563 5.535156 13.761719 13.019531 13.761719h292.871094c7.484375.003906 13.433594-6.285156 13.015625-13.761719zm0 0" fill="#1b87c9"/><path d="m199.679688 442.925781h-70.082032c-20.457031 0-37.042968-16.585937-37.042968-37.046875 0-20.457031 16.585937-37.042968 37.042968-37.042968h70.082032c20.460937 0 37.046874 16.585937 37.046874 37.042968 0 20.460938-16.585937 37.046875-37.046874 37.046875zm0 0" fill="#30a9e5"/><path d="m164.472656 324.785156c31.050782 0 57.921875-18.222656 70.496094-44.527344-1.605469-.515624-3.226562-.988281-4.824219-1.53125l-10.023437-4.941406-7.03125-3.46875c-8.785156 18.003906-27.273438 30.441406-48.617188 30.441406s-39.835937-12.4375-48.621094-30.441406l-7.03125 3.464844-8.976562 4.425781c-1.953125.691407-3.917969 1.359375-5.890625 2.007813 12.566406 26.328125 39.449219 44.570312 70.519531 44.570312zm0 0" fill="#30a9e5"/><path d="m266.097656 507h44.808594c7.484375 0 13.433594-6.289062 13.015625-13.761719l-3.582031-64.332031h-54.242188zm0 0" fill="#fcb275"/><path d="m62.988281 428.90625h-54.386719l-3.582031 64.328125c-.417969 7.476563 5.53125 13.761719 13.015625 13.761719h44.953125zm0 0" fill="#fcb275"/><path d="m238.277344 120.632812v48.613282c0 3.808594-.292969 7.617187-.851563 11.398437 1.089844.132813 2.191407.230469 3.316407.230469 16.675781 0 30.191406-13.519531 30.191406-30.191406 0-17.703125-15.152344-31.503906-32.65625-30.050782zm0 0" fill="#fcb275"/><path d="m89.300781 169.246094v-48.652344c-.816406-.070312-1.636719-.105469-2.46875-.105469-16.671875 0-30.191406 13.519531-30.191406 30.191407 0 16.675781 13.519531 30.191406 30.191406 30.191406 1.128907 0 2.226563-.097656 3.316407-.226563-.558594-3.78125-.847657-7.59375-.847657-11.398437zm0 0" fill="#fcb275"/><path d="m236.25 110.097656c-.007812-.007812-.015625-.019531-.023438-.027344-6.398437-6.179687-19.203124-20.539062-23.023437-39.625-.792969-3.949218-5.386719-5.40625-8.21875-2.675781-10.535156 10.136719-33.5 25.539063-73.738281 22.101563-9.605469-.820313-19.332032 1.300781-27.328125 6.933594-2.460938 1.738281-4.949219 3.851562-7.320313 6.425781-2.378906 2.589843-4.789062 5.648437-6.535156 8.964843-.53125 1.011719-.761719 2.15625-.761719 3.296876v53.753906c0 40.96875 33.519531 82.5 74.488281 82.5s74.488282-41.53125 74.488282-82.5v-54.023438c0-1.90625-.660156-3.800781-2.027344-5.125zm0 0" fill="#fcb275"/><path d="m67.074219 127.886719c5.300781-4.597657 12.195312-7.398438 19.757812-7.398438.832031 0 1.65625.035157 2.46875.105469v-5.101562c0-1.140626.230469-2.285157.761719-3.296876 1.742188-3.316406 4.15625-6.378906 6.535156-8.964843 2.371094-2.578125 4.855469-4.691407 7.320313-6.425781 7.996093-5.632813 17.722656-7.753907 27.324219-6.933594 40.238281 3.4375 63.207031-11.96875 73.738281-22.105469 2.835937-2.726563 7.429687-1.269531 8.21875 2.679687 3.820312 19.082032 16.625 33.445313 23.027343 39.625l.023438.023438c1.367188 1.328125 2.027344 3.222656 2.027344 5.125v5.414062c9.082031-.753906 17.507812 2.621094 23.535156 8.496094l1.769531-39.949218c1.339844-25.527344-11.957031-49.445313-33.835937-60.714844-16.964844-8.742188-39.257813-23.464844-65.273438-23.464844s-48.308594 14.722656-65.28125 23.464844c-21.875 11.269531-35.175781 35.191406-33.832031 60.714844zm0 0" fill="#7c292e"/><path d="m164.472656 300.753906c21.34375 0 39.832032-12.4375 48.617188-30.4375l-1.046875-.515625-3.640625-1.796875c-2.523438-1.242187-4.605469-3.089844-6.195313-5.285156-2.042969-2.828125-3.238281-6.253906-3.238281-9.882812v-11.816407c-10.492188 6.730469-22.476562 10.726563-35.179688 10.726563-12.160156 0-23.652343-3.679688-33.816406-9.894532v10.984376c0 3.625-1.191406 7.054687-3.238281 9.882812-1.585937 2.195312-3.671875 4.042969-6.195313 5.289062l-2.679687 1.320313-2.007813.988281c8.785157 18.003906 27.277344 30.4375 48.621094 30.4375zm0 0" fill="#fcb275"/><g fill="#231f20"><path d="m196.53125 183.476562c-.726562 0-1.457031-.027343-2.191406-.085937-7.175782-.578125-13.695313-3.917969-18.363282-9.402344-4.664062-5.480469-6.914062-12.453125-6.335937-19.628906s3.914063-13.699219 9.398437-18.367187c5.480469-4.664063 12.4375-6.917969 19.632813-6.335938 7.175781.578125 13.699219 3.914062 18.367187 9.398438 4.664063 5.484374 6.914063 12.460937 6.335938 19.636718-1.132812 14.078125-12.957031 24.785156-26.84375 24.785156zm-.050781-43.910156c-4.015625 0-7.863281 1.410156-10.957031 4.042969-3.449219 2.933594-5.546876 7.035156-5.910157 11.550781-.367187 4.515625 1.046875 8.898438 3.984375 12.351563 2.933594 3.449219 7.035156 5.546875 11.550782 5.914062 4.496093.359375 8.894531-1.054687 12.347656-3.988281s5.550781-7.039062 5.914062-11.554688c.367188-4.511718-1.050781-8.898437-3.988281-12.347656-2.933594-3.449218-7.035156-5.550781-11.550781-5.914062-.464844-.035156-.929688-.054688-1.390625-.054688zm0 0"/><path d="m132.476562 183.480469c-.734374 0-1.46875-.03125-2.210937-.089844-7.175781-.578125-13.695313-3.917969-18.363281-9.402344-4.664063-5.480469-6.914063-12.453125-6.335938-19.628906 1.191406-14.816406 14.203125-25.910156 29.03125-24.707031 14.816406 1.195312 25.898438 14.21875 24.703125 29.035156-.578125 7.175781-3.914062 13.699219-9.398437 18.363281-4.921875 4.1875-11.035156 6.429688-17.425782 6.429688zm-.054687-43.914063c-8.738281 0-16.175781 6.734375-16.890625 15.59375-.363281 4.515625 1.050781 8.898438 3.988281 12.347656 2.9375 3.449219 7.039063 5.546876 11.550781 5.914063 4.515626.359375 8.902344-1.050781 12.347657-3.988281 3.449219-2.9375 5.550781-7.039063 5.914062-11.550782.367188-4.511718-1.050781-8.898437-3.988281-12.347656-2.933594-3.449218-7.035156-5.550781-11.550781-5.914062-.457031-.035156-.917969-.054688-1.371094-.054688zm0 0"/><path d="m164.472656 165.796875c-5.175781 0-9.9375-1.609375-13.0625-4.410156-2.058594-1.84375-2.230468-5.003907-.382812-7.0625 1.84375-2.054688 5.003906-2.226563 7.058594-.382813.953124.855469 3.199218 1.855469 6.386718 1.855469 3.183594 0 5.429688-1 6.386719-1.855469 2.054687-1.84375 5.210937-1.667968 7.058594.382813 1.84375 2.058593 1.671875 5.21875-.382813 7.0625-3.125 2.800781-7.886718 4.410156-13.0625 4.410156zm0 0"/><path d="m164.472656 213.96875c-8.875 0-17.136718-4.394531-22.105468-11.75-1.546876-2.289062-.945313-5.398438 1.34375-6.941406 2.285156-1.546875 5.394531-.945313 6.941406 1.34375 3.105468 4.601562 8.273437 7.347656 13.820312 7.347656 5.542969 0 10.707032-2.75 13.820313-7.347656 1.539062-2.292969 4.65625-2.890625 6.941406-1.34375 2.289063 1.542968 2.890625 4.652344 1.34375 6.941406-4.972656 7.355469-13.234375 11.75-22.105469 11.75zm0 0"/><path d="m265.953125 509.199219c-2.761719 0-5-2.238281-5-5v-110.746094c0-2.761719 2.238281-5 5-5s5 2.238281 5 5v110.746094c0 2.757812-2.238281 5-5 5zm0 0"/><path d="m62.988281 509.199219c-2.761719 0-5-2.238281-5-5v-110.746094c0-2.761719 2.238281-5 5-5s5 2.238281 5 5v110.746094c0 2.757812-2.238281 5-5 5zm0 0"/><path d="m138.808594 164.320312c-3.3125 0-6-2.6875-6-6v-1.105468c0-3.316406 2.6875-6 6-6 3.316406 0 6 2.683594 6 6v1.105468c0 3.3125-2.683594 6-6 6zm0 0"/><path d="m191.816406 165.164062c-3.3125 0-6-2.683593-6-6v-1.105468c0-3.3125 2.6875-6 6-6 3.316406 0 6 2.6875 6 6v1.105468c0 3.316407-2.683594 6-6 6zm0 0"/><path d="m310.90625 512h-292.871094c-4.9375 0-9.710937-2.054688-13.101562-5.640625-3.390625-3.585937-5.179688-8.472656-4.9062502-13.398437l9.5234372-170.984376c.847657-15.179687 11.320313-27.871093 26.0625-31.585937l39.792969-10.015625c5.679688-1.429688 11.398438-3.082031 16.996094-4.914062 2.386718-.785157 4.984375.328124 6.066406 2.597656 12.09375 25.347656 38.003906 41.726562 66.003906 41.726562 27.980469 0 53.878906-16.363281 65.984375-41.683594 1.078125-2.253906 3.65625-3.371093 6.035157-2.605468 5.875 1.875 11.085937 3.382812 15.921874 4.601562l40.914063 10.296875c14.742187 3.710938 25.21875 16.402344 26.066406 31.582031l9.523438 170.984376c.277343 4.929687-1.515625 9.8125-4.90625 13.402343-3.394531 3.582031-8.167969 5.636719-13.105469 5.636719zm-219.476562-225.734375c-4.503907 1.390625-9.054688 2.667969-13.585938 3.808594l-39.789062 10.015625c-10.476563 2.636718-17.917969 11.65625-18.519532 22.441406l-9.527344 170.984375c-.121093 2.226563.652344 4.347656 2.1875 5.96875 1.535157 1.625 3.605469 2.515625 5.839844 2.515625h292.871094c2.230469 0 4.304688-.894531 5.835938-2.515625 1.539062-1.621094 2.3125-3.742187 2.1875-5.96875l-9.523438-170.984375c-.601562-10.785156-8.042969-19.804688-18.519531-22.441406l-40.914063-10.296875c-3.894531-.980469-8.003906-2.136719-12.472656-3.503907-14.46875 26.558594-42.671875 43.496094-73.03125 43.496094-30.371094 0-58.574219-16.945312-73.039062-43.519531zm0 0"/><path d="m186.746094 429.136719c-1.375 0-2.742188-.5625-3.730469-1.667969-1.839844-2.058594-1.664063-5.214844.394531-7.058594l15.660156-14.015625-15.660156-14.011719c-2.058594-1.839843-2.234375-5.003906-.394531-7.0625 1.847656-2.054687 5.007813-2.234374 7.0625-.390624l19.824219 17.742187c1.058594.945313 1.664062 2.300781 1.664062 3.722656s-.605468 2.78125-1.664062 3.726563l-19.824219 17.742187c-.953125.851563-2.148437 1.273438-3.332031 1.273438zm0 0"/><path d="m142.199219 429.136719c-1.1875 0-2.378907-.421875-3.332031-1.273438l-19.824219-17.742187c-1.0625-.945313-1.667969-2.300782-1.667969-3.726563 0-1.421875.605469-2.777343 1.667969-3.722656l19.824219-17.742187c2.054687-1.84375 5.214843-1.664063 7.058593.390624 1.839844 2.058594 1.664063 5.21875-.390625 7.0625l-15.660156 14.011719 15.660156 14.015625c2.054688 1.839844 2.230469 5 .390625 7.058594-.988281 1.105469-2.355469 1.667969-3.726562 1.667969zm0 0"/><path d="m156.117188 429.542969c-.703126 0-1.414063-.148438-2.09375-.460938-2.507813-1.15625-3.601563-4.128906-2.445313-6.636719l16.707031-36.191406c1.15625-2.507812 4.121094-3.601562 6.632813-2.445312 2.507812 1.160156 3.601562 4.128906 2.445312 6.636718l-16.703125 36.191407c-.847656 1.828125-2.65625 2.90625-4.542968 2.90625zm0 0"/><path d="m199.679688 447.925781h-70.082032c-23.183594 0-42.042968-18.863281-42.042968-42.046875s18.859374-42.042968 42.042968-42.042968h70.082032c23.183593 0 42.042968 18.859374 42.042968 42.042968s-18.859375 42.046875-42.042968 42.046875zm-70.082032-74.089843c-17.667968 0-32.042968 14.375-32.042968 32.042968 0 17.667969 14.375 32.046875 32.042968 32.046875h70.082032c17.667968 0 32.042968-14.378906 32.042968-32.046875 0-17.667968-14.375-32.042968-32.042968-32.042968zm0 0"/><path d="m164.472656 329.785156c-31.832031 0-61.285156-18.613281-75.03125-47.417968-.621094-1.296876-.648437-2.796876-.082031-4.121094.5625-1.320313 1.671875-2.335938 3.039063-2.785156 1.839843-.601563 3.675781-1.222657 5.503906-1.867188l15.742187-7.761719c1.191407-.589843 2.570313-.675781 3.828125-.246093 1.257813.429687 2.289063 1.34375 2.875 2.539062 8.191406 16.785156 25.507813 27.632812 44.125 27.632812 18.613282 0 35.933594-10.847656 44.121094-27.632812.585938-1.195312 1.621094-2.109375 2.878906-2.539062 1.257813-.433594 2.636719-.34375 3.828125.246093l16.753907 8.261719c.875.292969 1.761718.566406 2.644531.839844l1.789062.5625c1.378907.441406 2.496094 1.453125 3.070313 2.78125.570312 1.324218.542968 2.832031-.078125 4.136718-13.757813 28.777344-43.199219 47.371094-75.007813 47.371094zm-63.371094-46.71875c12.96875 22.476563 37.261719 36.71875 63.371094 36.71875 26.074219 0 50.347656-14.210937 63.328125-36.640625l-12.613281-6.21875c-10.59375 17.664063-29.984375 28.832031-50.714844 28.832031-20.734375 0-40.128906-11.167968-50.71875-28.832031l-11.695312 5.769531c-.175782.085938-.359375.164063-.542969.230469-.136719.042969-.277344.09375-.414063.140625zm0 0"/><path d="m310.90625 512h-44.808594c-2.761718 0-5-2.238281-5-5v-78.09375c0-2.761719 2.238282-5 5-5h54.242188c2.65625 0 4.84375 2.074219 4.992187 4.722656l3.585938 64.332032c.277343 4.925781-1.515625 9.8125-4.90625 13.398437-3.394531 3.585937-8.167969 5.640625-13.105469 5.640625zm-39.808594-10h39.808594c2.230469 0 4.304688-.894531 5.835938-2.515625 1.539062-1.621094 2.3125-3.742187 2.1875-5.96875l-3.316407-59.609375h-44.515625zm0 0"/><path d="m62.988281 512h-44.953125c-4.9375 0-9.710937-2.054688-13.101562-5.640625-3.390625-3.585937-5.179688-8.472656-4.9062502-13.398437l3.5859372-64.332032c.144531-2.648437 2.335938-4.722656 4.988281-4.722656h54.386719c2.761719 0 5 2.238281 5 5v78.09375c0 2.761719-2.238281 5-5 5zm-49.65625-78.09375-3.320312 59.609375c-.125 2.226563.652343 4.347656 2.1875 5.96875 1.53125 1.625 3.605469 2.515625 5.835937 2.515625h39.953125v-68.09375zm0 0"/><path d="m240.746094 185.871094c-1.542969 0-2.96875-.148438-3.914063-.261719-1.339843-.160156-2.554687-.855469-3.375-1.929687-.816406-1.070313-1.167969-2.429688-.972656-3.765626.527344-3.589843.796875-7.179687.796875-10.667968v-48.613282c0-2.601562 1.992188-4.769531 4.585938-4.984374 9.757812-.804688 19.507812 2.539062 26.730468 9.183593 7.207032 6.632813 11.339844 16.054688 11.339844 25.847657-.003906 19.40625-15.789062 35.191406-35.191406 35.191406zm2.53125-60.214844v43.589844c0 2.148437-.089844 4.328125-.265625 6.523437 12.832031-1.148437 22.921875-11.960937 22.921875-25.089843 0-7.109376-2.878906-13.675782-8.109375-18.488282-4.03125-3.714844-9.164063-5.988281-14.546875-6.535156zm0 0"/><path d="m86.832031 185.871094c-19.402343 0-35.191406-15.785156-35.191406-35.191406s15.789063-35.191407 35.191406-35.191407c.972657 0 1.929688.042969 2.882813.121094 2.589844.214844 4.585937 2.382813 4.585937 4.984375v48.652344c0 3.5.265625 7.09375.792969 10.667968.199219 1.335938-.15625 2.695313-.972656 3.765626-.820313 1.074218-2.039063 1.769531-3.378906 1.929687-.9375.113281-2.367188.261719-3.910157.261719zm-2.53125-60.257813c-12.707031 1.273438-22.65625 12.03125-22.65625 25.066407 0 13.125 10.089844 23.941406 22.921875 25.089843-.175781-2.191406-.265625-4.371093-.265625-6.523437zm0 0"/><path d="m163.789062 256.746094c-45.492187 0-79.488281-46.195313-79.488281-87.5v-53.753906c0-2.019532.460938-3.964844 1.335938-5.625 1.71875-3.265626 4.167969-6.636719 7.28125-10.019532 2.445312-2.65625 5.175781-5.054687 8.121093-7.128906 8.523438-6.007812 19.394532-8.792969 30.628907-7.828125 38.613281 3.300781 60.332031-11.570313 69.84375-20.726563 2.621093-2.519531 6.375-3.414062 9.796875-2.34375 3.460937 1.082032 6.066406 4.015626 6.792968 7.644532 3.621094 18.082031 16.308594 31.90625 21.597657 37.011718.003906 0 .03125.03125.035156.035157 2.253906 2.1875 3.542969 5.363281 3.542969 8.710937v54.023438c0 41.304687-33.992188 87.5-79.488282 87.5zm-36.464843-162.042969c-7.609375 0-14.792969 2.152344-20.527344 6.1875-2.367187 1.667969-4.558594 3.59375-6.519531 5.726563-2.527344 2.746093-4.476563 5.40625-5.792969 7.90625-.117187.230468-.183594.574218-.183594.96875v53.753906c0 44.355468 36.683594 77.5 69.488281 77.5 32.800782 0 69.488282-33.144532 69.488282-77.5v-54.023438c0-.644531-.195313-1.234375-.511719-1.539062-.019531-.019532-.035156-.035156-.050781-.054688l-.023438-.023437c-7.332031-7.078125-20.339844-22.046875-24.378906-42.101563-10.851562 10.371094-35.164062 26.972656-77.496094 23.347656-1.167968-.097656-2.335937-.148437-3.492187-.148437zm0 0"/><path d="m261.820312 134.128906c-1.28125 0-2.539062-.492187-3.492187-1.417968-5.246094-5.109376-12.429687-7.695313-19.632813-7.09375-1.40625.117187-2.773437-.359376-3.800781-1.304688-1.027343-.945312-1.613281-2.28125-1.613281-3.679688v-5.410156c0-.644531-.199219-1.234375-.515625-1.539062-7.40625-7.15625-20.410156-22.125-24.453125-42.179688-10.851562 10.371094-35.164062 26.972656-77.496094 23.347656-8.878906-.75-17.414062 1.386719-24.019531 6.039063-2.367187 1.667969-4.558594 3.59375-6.519531 5.726563-2.527344 2.746093-4.476563 5.40625-5.792969 7.90625-.117187.226562-.183594.570312-.183594.964843v5.101563c0 1.398437-.585937 2.730468-1.617187 3.679687-1.027344.945313-2.390625 1.410157-3.796875 1.300781-.675781-.054687-1.363281-.085937-2.054688-.085937-6.039062 0-11.894531 2.195313-16.484375 6.175781-1.449218 1.253906-3.488281 1.574219-5.25.816406-1.761718-.757812-2.933594-2.453124-3.019531-4.371093l-1.714844-38.707031c-1.449219-27.515626 12.894531-53.195313 36.539063-65.378907 2.609375-1.34375 5.347656-2.832031 8.207031-4.386719 16.09375-8.746093 36.125-19.632812 59.363281-19.632812 23.238282 0 43.269532 10.886719 59.363282 19.632812 2.859374 1.554688 5.59375 3.042969 8.207031 4.386719 23.640625 12.183594 37.984375 37.863281 36.535156 65.421875l-1.765625 39.90625c-.085938 1.96875-1.320312 3.703125-3.152344 4.429688-.597656.238281-1.226562.351562-1.839844.351562zm-18.542968-18.507812c4.890625.355468 9.640625 1.734375 13.953125 4.027344l1.359375-30.6875c1.246094-23.679688-10.972656-45.667969-31.125-56.050782-2.671875-1.375-5.476563-2.894531-8.402344-4.488281-15.101562-8.207031-33.894531-18.421875-54.589844-18.421875-20.699218 0-39.488281 10.210938-54.589844 18.421875-2.925781 1.589844-5.730468 3.113281-8.402343 4.488281-20.152344 10.382813-32.371094 32.367188-31.128907 56.003906l1.332032 30.023438c3.945312-1.890625 8.222656-3.039062 12.617187-3.355469v-.089843c0-2.015626.460938-3.960938 1.335938-5.621094 1.71875-3.269532 4.167969-6.640625 7.28125-10.023438 2.445312-2.652344 5.175781-5.050781 8.121093-7.128906 8.523438-6.003906 19.394532-8.789062 30.628907-7.828125 38.613281 3.300781 60.332031-11.570313 69.84375-20.722656 2.621093-2.519531 6.375-3.414063 9.796875-2.347657 3.460937 1.085938 6.066406 4.015626 6.792968 7.648438 3.621094 18.078125 16.308594 31.90625 21.597657 37.007812 2.289062 2.222657 3.578125 5.398438 3.578125 8.746094zm0 0"/><path d="m164.472656 305.753906c-22.410156 0-43.257812-13.050781-53.113281-33.246094-1.207031-2.476562-.1875-5.460937 2.285156-6.679687l4.683594-2.308594c1.710937-.84375 3.175781-2.097656 4.351563-3.726562 1.5-2.078125 2.292968-4.480469 2.292968-6.957031v-10.984376c0-1.808593.976563-3.476562 2.554688-4.363281 1.578125-.882812 3.507812-.847656 5.054687.097657 9.941407 6.078124 20.441407 9.160156 31.207031 9.160156 11.113282 0 22.34375-3.433594 32.480469-9.9375 1.542969-.988282 3.492188-1.054688 5.101563-.179688 1.601562.878906 2.601562 2.5625 2.601562 4.390625v11.820313c0 2.472656.789063 4.878906 2.289063 6.953125 1.179687 1.632812 2.644531 2.886719 4.355469 3.730469l4.6875 2.3125c2.46875 1.214843 3.492187 4.203124 2.285156 6.675781-9.859375 20.195312-30.707032 33.242187-53.117188 33.242187zm-41.710937-33.269531c8.886719 14.277344 24.761719 23.269531 41.710937 23.269531 16.945313 0 32.820313-8.992187 41.707032-23.269531-3.136719-1.550781-5.914063-3.917969-8.027344-6.839844-2.738282-3.789062-4.183594-8.21875-4.183594-12.808593v-3.273438c-9.644531 4.71875-19.933594 7.179688-30.179688 7.179688-9.894531 0-19.554687-2.191407-28.816406-6.527344v2.617187c0 4.59375-1.449218 9.023438-4.1875 12.8125-2.109375 2.925781-4.886718 5.289063-8.023437 6.839844zm0 0"/></g></svg>