<svg height="511pt" viewBox="-91 0 511 511.99847" width="511pt" xmlns="http://www.w3.org/2000/svg"><path d="m198.402344 80.1875c-.605469-1.660156-2.785156-2.007812-3.851563-.601562-6.976562 9.21875-29.296875 33.007812-72.445312 30.558593-17.425781-.984375-26.757813 6.304688-31.753907 13.960938v50.660156c0 41.050781 33.585938 82.664063 74.640626 82.664063 41.050781 0 74.636718-41.613282 74.636718-82.664063v-56.921875c-9.667968-1.339844-30.347656-7.761719-41.226562-37.65625zm0 0" fill="#bb6536"/><path d="m90.347656 174.761719v-48.75c-.8125-.070313-1.636718-.105469-2.472656-.105469-16.707031 0-30.25 13.542969-30.25 30.253906 0 16.707032 13.542969 30.25 30.25 30.25 1.128906 0 2.230469-.097656 3.324219-.226562-.558594-3.789063-.851563-7.605469-.851563-11.421875zm0 0" fill="#bb6536"/><path d="m239.625 126.050781v48.710938c0 3.816406-.289062 7.632812-.847656 11.421875 1.089844.128906 2.191406.226562 3.320312.226562 16.710938 0 30.253906-13.542968 30.253906-30.25 0-17.734375-15.183593-31.566406-32.726562-30.109375zm0 0" fill="#bb6536"/><path d="m164.988281 332.144531c32.101563 0 58.75-23.765625 63.292969-54.621093l-15.714844-7.75-3.640625-1.796876c-5.777343-2.847656-9.433593-8.726562-9.433593-15.167968v-5.671875c-10.335938 6.460937-22.074219 10.292969-34.503907 10.292969-12.429687 0-24.164062-3.832032-34.5-10.292969v5.671875c0 6.441406-3.660156 12.320312-9.4375 15.167968l-2.679687 1.324219-16.671875 8.21875c4.542969 30.863281 31.1875 54.625 63.289062 54.625zm0 0" fill="#bb6536"/><path d="m324.457031 493.234375-9.523437-171c-.71875-12.914063-9.75-23.859375-22.292969-27.015625l-40.917969-10.300781c-.046875-.011719-.097656-.027344-.144531-.039063-7.835937 40.664063-43.671875 71.480469-86.585937 71.480469-42.917969 0-78.757813-30.824219-86.589844-71.492187-.421875.109374-.84375.226562-1.269532.335937l-39.792968 10.015625c-12.542969 3.15625-21.574219 14.101562-22.296875 27.015625l-9.523438 171.003906c-.414062 7.472657 5.53125 13.761719 13.019531 13.761719h292.902344c7.484375 0 13.433594-6.292969 13.015625-13.765625zm0 0" fill="#e04e36"/><path d="m199.492188 247.136719v5.671875c0 4.828125 2.054687 9.347656 5.519531 12.503906 1.15625 1.050781 2.46875 1.953125 3.914062 2.664062l3.640625 1.796876 18.101563 8.925781c6.832031 2.324219 13.757812 4.371093 20.757812 6.140625.851563-3.386719 1.347657-6.914063 1.347657-10.5625 0-4.367188-.652344-8.582032-1.855469-12.558594-.808594-2.671875.003906-5.589844 2.09375-7.441406 7.277343-6.46875 11.867187-15.898438 11.867187-26.40625 0-7.398438-2.292968-14.246094-6.1875-19.910156-1.628906-2.371094-1.605468-5.441407-.171875-7.9375 2.296875-3.992188 3.53125-8.671876 3.308594-13.660157-.097656-2.199219-.519531-4.320312-1.167969-6.347656-5.125 3.996094-11.554687 6.398437-18.558594 6.398437-1.128906 0-2.230468-.097656-3.324218-.230468 0-.003906 0-.007813.003906-.015625-3.632812 24.65625-18.65625 48.074219-39.289062 60.96875zm0 0" fill="#938d8c"/><path d="m77.003906 254.277344c2.085938 1.851562 2.902344 4.769531 2.09375 7.441406-1.203125 3.976562-1.855468 8.191406-1.855468 12.558594 0 3.644531.496093 7.160156 1.34375 10.539062 3.460937-.890625 6.90625-1.84375 10.324218-2.878906.070313-.019531.140625-.046875.210938-.066406 1.847656-.558594 3.695312-1.136719 5.527344-1.742188 1.910156-.625 3.8125-1.273437 5.710937-1.945312l1.25-.613282 16.761719-8.265624 2.679687-1.320313c5.777344-2.851563 9.4375-8.730469 9.4375-15.171875v-5.671875c-20.636719-12.894531-35.660156-36.3125-39.289062-60.96875v.015625c-1.089844.128906-2.191407.226562-3.320313.226562-6.988281 0-13.402344-2.390624-18.527344-6.371093-.644531 2.015625-1.066406 4.128906-1.164062 6.320312-.222656 4.992188 1.011719 9.667969 3.308594 13.664063 1.433594 2.492187 1.460937 5.5625-.167969 7.933594-3.898437 5.667968-6.191406 12.515624-6.191406 19.914062 0 10.5 4.589843 19.933594 11.867187 26.402344zm0 0" fill="#938d8c"/><path d="m210.707031 31.953125c-1.691406-.082031-3.230469-.980469-4.214843-2.464844-7.308594-11.019531-18.066407-19.222656-30.585938-22.777343-7.0625-2.003907-14.457031-2.136719-21.683594-.992188-26.378906 4.175781-110.304687 25.515625-84.105468 125.984375 4.992187-3.632813 11.117187-5.796875 17.761718-5.796875.832032 0 1.65625.035156 2.472656.101562v-1.90625c4.996094-7.652343 14.332032-14.945312 31.753907-13.957031 43.148437 2.449219 65.46875-21.339843 72.445312-30.5625 1.0625-1.40625 3.246094-1.054687 3.851563.605469 10.878906 29.894531 31.5625 36.316406 41.226562 37.65625v8.203125c6.382813-.527344 12.441406.984375 17.582032 3.957031 5.796874-10.574218 5.726562-26.320312 5.726562-39.359375-.003906-31.484375-23.113281-57.292969-52.230469-58.691406zm0 0" fill="#938d8c"/><path d="m101.695312 277.523438-1.339843.660156c-7.214844 2.554687-14.539063 4.777344-21.953125 6.679687 7.828125 40.671875 43.667968 71.492188 86.585937 71.492188 42.914063 0 78.75-30.816407 86.585938-71.480469-7.050781-1.777344-14.023438-3.835938-20.90625-6.175781l-2.386719-1.175781c-4.542969 30.855468-31.191406 54.621093-63.292969 54.621093-32.101562 0-58.746093-23.761719-63.292969-54.621093zm0 0" fill="#fc5d4c"/><path d="m200.296875 468.664062h-70.617187c-20.613282 0-37.324219-16.714843-37.324219-37.328124 0-20.613282 16.710937-37.324219 37.324219-37.324219h70.617187c20.613281 0 37.324219 16.710937 37.324219 37.324219 0 20.617187-16.707032 37.328124-37.324219 37.328124zm0 0" fill="#fc5d4c"/><g fill="#231f20"><path d="m164.988281 262.429688c-45.582031 0-79.640625-46.285157-79.640625-87.664063v-50.660156c0-.972657.28125-1.921875.816406-2.734375 5.25-8.039063 15.804688-17.367188 36.222657-16.214844 40.28125 2.300781 61.09375-19.226562 68.175781-28.585938 1.597656-2.109374 4.214844-3.167968 6.8125-2.78125 2.625.398438 4.8125 2.195313 5.722656 4.6875 9.757813 26.804688 27.503906 33.066407 37.214844 34.414063 2.472656.34375 4.3125 2.457031 4.3125 4.953125v56.917969c0 41.382812-34.054688 87.667969-79.636719 87.667969zm-69.640625-136.769532v49.101563c0 44.453125 36.765625 77.667969 69.640625 77.667969s69.636719-33.214844 69.636719-77.667969v-52.777344c-10.539062-2.503906-28.410156-10.453125-39.15625-35.609375-10.1875 11.714844-33.320312 31.058594-73.648438 28.761719-11.96875-.679688-20.871093 2.859375-26.472656 10.523437zm0 0"/><path d="m87.878906 191.414062c-19.4375 0-35.253906-15.816406-35.253906-35.253906s15.816406-35.25 35.253906-35.25c.96875 0 1.933594.039063 2.882813.117188 2.589843.214844 4.585937 2.382812 4.585937 4.984375v48.753906c0 3.5.269532 7.097656.800782 10.691406.195312 1.335938-.15625 2.695313-.976563 3.765625-.820313 1.070313-2.039063 1.769532-3.378906 1.929688-1.523438.179687-2.730469.261718-3.914063.261718zm-2.53125-60.382812c-12.742187 1.273438-22.722656 12.058594-22.722656 25.128906 0 13.160156 10.121094 24.003906 22.988281 25.148438-.175781-2.199219-.265625-4.386719-.265625-6.546875zm0 0"/><path d="m242.101562 191.414062c-1.183593 0-2.394531-.082031-3.917968-.265624-1.339844-.160157-2.558594-.855469-3.378906-1.929688-.816407-1.070312-1.171876-2.429688-.972657-3.765625.53125-3.589844.796875-7.1875.796875-10.691406v-48.710938c0-2.601562 1.992188-4.769531 4.585938-4.980469 9.789062-.816406 19.542968 2.539063 26.78125 9.195313 7.214844 6.644531 11.359375 16.082031 11.359375 25.894531-.003907 19.4375-15.820313 35.253906-35.253907 35.253906zm2.523438-60.339843v43.6875c0 2.160156-.089844 4.347656-.265625 6.546875 12.871094-1.144532 22.992187-11.988282 22.992187-25.148438 0-7.128906-2.890624-13.710937-8.132812-18.539062-4.042969-3.71875-9.195312-6.003906-14.59375-6.546875zm0 0"/><path d="m266.484375 509.195312c-2.765625 0-5-2.238281-5-5v-110.757812c0-2.761719 2.234375-5 5-5 2.761719 0 5 2.238281 5 5v110.757812c0 2.761719-2.238281 5-5 5zm0 0"/><path d="m63.496094 509.195312c-2.761719 0-5-2.238281-5-5v-110.757812c0-2.761719 2.238281-5 5-5 2.761718 0 5 2.238281 5 5v110.757812c0 2.761719-2.238282 5-5 5zm0 0"/><path d="m164.988281 337.148438c-33.957031 0-63.296875-25.320313-68.238281-58.898438-.316406-2.148438.789062-4.25 2.738281-5.210938l19.351563-9.542968c4.097656-2.019532 6.644531-6.117188 6.644531-10.6875v-5.671875c0-1.816407.984375-3.492188 2.578125-4.371094 1.585938-.882813 3.53125-.832031 5.070312.128906 10.125 6.328125 20.84375 9.535157 31.855469 9.535157 11.015625 0 21.730469-3.207032 31.851563-9.535157 1.542968-.960937 3.484375-1.011719 5.074218-.128906 1.589844.878906 2.578126 2.554687 2.578126 4.371094v5.671875c0 4.570312 2.542968 8.667968 6.640624 10.6875l19.359376 9.542968c1.949218.960938 3.050781 3.066407 2.738281 5.214844-4.945313 33.574219-34.28125 58.894532-68.242188 58.894532zm-57.707031-56.804688c5.6875 26.921875 29.882812 46.804688 57.710938 46.804688 27.824218 0 52.019531-19.882813 57.707031-46.800782l-15.984375-7.882812c-6.722656-3.3125-11.179688-9.667969-12.058594-16.964844-9.503906 4.554688-19.621094 6.933594-29.664062 6.933594-10.046876 0-20.160157-2.378906-29.664063-6.933594-.886719 7.300781-5.335937 13.652344-12.0625 16.964844zm0 0"/><path d="m311.4375 512h-292.902344c-4.933594 0-9.710937-2.058594-13.101562-5.644531-3.394532-3.585938-5.179688-8.472657-4.90625-13.398438l9.523437-171c.847657-15.183593 11.320313-27.875 26.066407-31.585937l41.039062-10.347656c1.332031-.339844 2.753906-.121094 3.921875.617187 1.164063.738281 1.972656 1.925781 2.238281 3.28125 7.523438 39.074219 41.871094 67.4375 81.675782 67.4375 39.796874 0 74.148437-28.359375 81.675781-67.425781.261719-1.355469 1.070312-2.546875 2.242187-3.28125 1.167969-.738282 2.59375-.960938 3.925782-.613282.035156.007813.164062.046876.199218.054688l40.828125 10.277344c14.742188 3.710937 25.21875 16.402344 26.066407 31.582031l9.523437 171c.277344 4.929687-1.515625 9.816406-4.90625 13.402344-3.394531 3.585937-8.175781 5.644531-13.109375 5.644531zm-236.796875-221.015625-36.082031 9.082031c-10.480469 2.636719-17.921875 11.65625-18.523438 22.445313l-9.527344 171c-.125 2.230469.652344 4.347656 2.1875 5.972656 1.535157 1.621094 3.605469 2.511719 5.839844 2.511719h292.898438c2.234375 0 4.308594-.894532 5.839844-2.511719 1.539062-1.625 2.3125-3.746094 2.1875-5.972656l-9.523438-171c-.601562-10.789063-8.042969-19.808594-18.523438-22.445313l-36.078124-9.082031c-10.355469 41.085937-47.542969 70.375-90.347657 70.375-42.8125 0-79.992187-29.292969-90.347656-70.375zm0 0"/><path d="m251.429688 289.839844c-.410157 0-.824219-.050782-1.226563-.152344-7.144531-1.808594-14.257813-3.910156-21.144531-6.253906-.207032-.070313-.402344-.152344-.601563-.25l-21.742187-10.71875c-1.847656-.914063-3.550782-2.074219-5.066406-3.457032-4.546876-4.140624-7.15625-10.046874-7.15625-16.199218v-5.671875c0-1.722657.886718-3.324219 2.351562-4.238281 19.382812-12.113282 33.558594-34.128907 36.988281-57.457032.382813-2.59375 2.699219-4.457031 5.3125-4.257812.207031.011718.414063.039062.613281.082031.925782.101563 1.660157.148437 2.34375.148437 5.648438 0 11.003907-1.84375 15.484376-5.339843 1.292968-1.003907 2.992187-1.316407 4.546874-.832031 1.558594.480468 2.789063 1.695312 3.289063 3.25.816406 2.542968 1.289063 5.117187 1.402344 7.648437.261719 5.75-1.113281 11.414063-3.96875 16.378906-.402344.703125-.625 1.761719-.039063 2.613281 4.621094 6.726563 7.066406 14.589844 7.066406 22.742188 0 11.507812-4.9375 22.496094-13.546874 30.144531-.625.558594-.875 1.441407-.625 2.257813 1.375 4.527344 2.070312 9.242187 2.070312 14.003906 0 3.863281-.503906 7.828125-1.5 11.78125-.324219 1.289062-1.144531 2.390625-2.285156 3.074219-.789063.460937-1.671875.703125-2.566406.703125zm-18.84375-15.769532c4.878906 1.652344 9.878906 3.183594 14.921874 4.5625.179688-1.464843.269532-2.921874.269532-4.355468 0-3.78125-.550782-7.515625-1.640625-11.105469-1.375-4.542969.023437-9.5 3.554687-12.636719 6.476563-5.75 10.191406-14.011718 10.191406-22.664062 0-6.117188-1.835937-12.023438-5.308593-17.078125-2.691407-3.914063-2.835938-8.996094-.386719-13.261719 1.640625-2.855469 2.550781-6.0625 2.660156-9.355469-4.339844 2.015625-9.035156 3.113281-13.90625 3.226563-4.730468 23.507812-19.089844 45.382812-38.449218 58.445312v2.957032c0 3.347656 1.417968 6.558593 3.890624 8.808593.824219.75 1.75 1.382813 2.753907 1.878907zm0 0"/><path d="m78.585938 289.816406c-.890626 0-1.773438-.238281-2.554688-.703125-1.144531-.679687-1.96875-1.789062-2.292969-3.082031-.992187-3.949219-1.496093-7.90625-1.496093-11.753906 0-4.757813.695312-9.472656 2.070312-14.007813.246094-.816406 0-1.699219-.628906-2.257812-8.609375-7.648438-13.546875-18.632813-13.546875-30.140625 0-8.15625 2.445312-16.019532 7.070312-22.746094.582031-.851562.359375-1.90625-.042969-2.609375-2.855468-4.96875-4.226562-10.632813-3.96875-16.378906.113282-2.511719.582032-5.078125 1.394532-7.621094.5-1.554687 1.726562-2.769531 3.285156-3.25 1.558594-.484375 3.257812-.175781 4.546875.828125 4.480469 3.480469 9.824219 5.320312 15.457031 5.320312.6875 0 1.417969-.046874 2.34375-.148437.066406-.015625.132813-.027344.203125-.039063 2.707031-.417968 5.253907 1.414063 5.707031 4.121094.007813.03125.011719.0625.015626.09375 3.433593 23.328125 17.609374 45.34375 36.992187 57.457032 1.460937.914062 2.347656 2.515624 2.347656 4.242187v5.671875c0 8.40625-4.683593 15.9375-12.222656 19.652344l-20.695313 10.207031c-.175781.085937-.359374.164063-.542968.230469-1.933594.683594-3.871094 1.34375-5.820313 1.980468-1.871093.617188-3.75 1.207032-5.632812 1.777344l-.203125.0625c-3.347656 1.015625-6.789063 1.972656-10.535156 2.941406-.410157.101563-.832032.152344-1.25.152344zm1.738281-39.277344c3.535156 3.136719 4.929687 8.097657 3.554687 12.632813-1.085937 3.59375-1.636718 7.332031-1.636718 11.105469 0 1.417968.085937 2.859375.261718 4.316406 1.695313-.472656 3.339844-.953125 4.957032-1.4375l.195312-.066406c1.824219-.550782 3.632812-1.121094 5.429688-1.710938 1.78125-.582031 3.554687-1.1875 5.324218-1.808594l20.425782-10.074218c4.097656-2.023438 6.644531-6.117188 6.644531-10.6875v-2.957032c-19.359375-13.0625-33.714844-34.933593-38.449219-58.449218-4.851562-.113282-9.535156-1.203125-13.859375-3.207032.109375 3.289063 1.015625 6.484376 2.65625 9.335938 2.449219 4.265625 2.304687 9.34375-.386719 13.257812-3.472656 5.054688-5.308594 10.960938-5.308594 17.082032.003907 8.652344 3.71875 16.914062 10.191407 22.667968zm0 0"/><path d="m70.117188 136.703125c-.566407 0-1.132813-.09375-1.683594-.289063-1.554688-.558593-2.738282-1.847656-3.152344-3.449218-9.089844-34.855469-6.171875-64.03125 8.671875-86.71875 21.65625-33.101563 62.800781-42.820313 79.488281-45.460938 8.464844-1.339844 16.480469-.960937 23.828125 1.125 13.449219 3.8125 25.304688 12.628906 33.390625 24.816406.035156.054688.160156.230469.285156.234376h.003907c31.957031 1.535156 56.988281 29.507812 56.988281 63.691406v.449218c0 13.246094 0 29.734376-6.339844 41.308594-.648437 1.179688-1.742187 2.050782-3.039062 2.414063s-2.683594.1875-3.851563-.484375c-4.46875-2.585938-9.535156-3.722656-14.667969-3.300782-1.40625.121094-2.769531-.355468-3.796874-1.304687-1.03125-.945313-1.617188-2.28125-1.617188-3.679687v-4.066407c-10.539062-2.5-28.410156-10.453125-39.15625-35.609375-10.191406 11.71875-33.308594 31.050782-73.648438 28.761719-11.972656-.683594-20.871093 2.859375-26.472656 10.523437v.351563c0 1.398437-.582031 2.730469-1.613281 3.675781-1.027344.945313-2.398437 1.417969-3.796875 1.304688-.679688-.054688-1.367188-.085938-2.058594-.085938-5.339844 0-10.464844 1.675782-14.816406 4.839844-.867188.628906-1.902344.953125-2.945312.953125zm93.019531-126.703125c-2.632813 0-5.347657.21875-8.132813.660156-15.371094 2.433594-53.21875 11.304688-72.683594 41.058594-12.335937 18.859375-15.328124 43.160156-8.910156 72.304688 4.09375-1.855469 8.5-2.90625 13.039063-3.085938 5.34375-7.9375 15.871093-16.917969 35.9375-15.78125 40.296875 2.296875 61.097656-19.230469 68.179687-28.585938 1.589844-2.109374 4.203125-3.175781 6.808594-2.78125 2.625.394532 4.816406 2.195313 5.722656 4.691407 9.757813 26.800781 27.503906 33.066406 37.214844 34.414062 2.472656.34375 4.3125 2.457031 4.3125 4.953125v3.1875c3.457031.246094 6.851562 1.003906 10.089844 2.25 3.21875-9.25 3.21875-21.808594 3.21875-32.1875v-.453125c0-28.832031-20.851563-52.421875-47.46875-53.699219-3.300782-.15625-6.269532-1.867187-8.140625-4.695312-6.765625-10.199219-16.632813-17.5625-27.789063-20.726562-3.582031-1.015626-7.394531-1.523438-11.398437-1.523438zm0 0"/><path d="m197.316406 189.046875c-.738281 0-1.480468-.03125-2.226562-.089844-14.902344-1.203125-26.054688-14.304687-24.855469-29.210937 1.203125-14.910156 14.304687-26.0625 29.214844-24.859375 7.21875.582031 13.785156 3.941406 18.476562 9.460937 4.695313 5.515625 6.957031 12.53125 6.375 19.753906-.582031 7.222657-3.941406 13.78125-9.457031 18.476563-4.945312 4.210937-11.101562 6.46875-17.527344 6.46875zm-.058594-44.25c-8.824218 0-16.332031 6.804687-17.054687 15.75-.757813 9.410156 6.285156 17.683594 15.695313 18.441406 4.539062.355469 8.984374-1.0625 12.46875-4.027343 3.484374-2.960938 5.601562-7.105469 5.96875-11.664063.371093-4.558594-1.058594-8.988281-4.023438-12.46875-2.964844-3.484375-7.109375-5.605469-11.667969-5.972656-.464843-.035157-.929687-.058594-1.386719-.058594zm0 0"/><path d="m132.753906 189.046875c-.742187 0-1.480468-.03125-2.226562-.089844-14.90625-1.203125-26.058594-14.304687-24.855469-29.210937.582031-7.222656 3.941406-13.785156 9.457031-18.480469 5.519532-4.691406 12.542969-6.96875 19.753906-6.375 7.222657.582031 13.785157 3.941406 18.480469 9.457031 4.695313 5.519532 6.960938 12.535156 6.375 19.753906-.582031 7.222657-3.941406 13.785157-9.457031 18.480469-4.949219 4.207031-11.101562 6.464844-17.527344 6.464844zm-.074218-44.25c-4.058594 0-7.945313 1.425781-11.070313 4.085937-3.484375 2.964844-5.601563 7.105469-5.96875 11.664063-.761719 9.414063 6.28125 17.6875 15.691406 18.445313 4.566407.367187 8.988281-1.0625 12.46875-4.027344 3.484375-2.960938 5.605469-7.105469 5.972657-11.664063.371093-4.558593-1.0625-8.988281-4.023438-12.46875-2.964844-3.484375-7.105469-5.605469-11.667969-5.972656-.46875-.039063-.9375-.0625-1.402343-.0625zm0 0"/><path d="m164.988281 171.226562c-5.207031 0-9.992187-1.613281-13.136719-4.433593-2.054687-1.839844-2.226562-5.003907-.382812-7.058594s5.003906-2.226563 7.058594-.382813c.96875.863282 3.242187 1.875 6.460937 1.875 3.222657 0 5.496094-1.011718 6.460938-1.875 2.050781-1.84375 5.214843-1.671874 7.058593.382813s1.671876 5.214844-.382812 7.058594c-3.140625 2.820312-7.929688 4.433593-13.136719 4.433593zm0 0"/><path d="m164.988281 219.769531c-8.921875 0-17.238281-4.421875-22.242187-11.824219-1.546875-2.289062-.945313-5.398437 1.34375-6.941406 2.289062-1.546875 5.398437-.949218 6.941406 1.339844 3.140625 4.648438 8.359375 7.421875 13.957031 7.421875 5.601563 0 10.816407-2.773437 13.957031-7.421875 1.546876-2.289062 4.65625-2.886719 6.945313-1.34375 2.289063 1.546875 2.886719 4.65625 1.34375 6.941406-5.003906 7.40625-13.320313 11.828125-22.246094 11.828125zm0 0"/><path d="m139.132812 169.734375c-3.3125 0-6-2.6875-6-6v-1.117187c0-3.3125 2.6875-6 6-6s6 2.6875 6 6v1.117187c0 3.3125-2.6875 6-6 6zm0 0"/><path d="m192.542969 170.585938c-3.3125 0-6-2.683594-6-6v-1.117188c0-3.3125 2.6875-6 6-6s6 2.6875 6 6v1.117188c0 3.316406-2.683594 6-6 6zm0 0"/><path d="m187.261719 454.734375c-1.371094 0-2.738281-.5625-3.726563-1.667969-1.84375-2.058594-1.667968-5.21875.390625-7.058594l15.8125-14.152343-15.8125-14.148438c-2.058593-1.839843-2.234375-5.003906-.390625-7.0625 1.84375-2.054687 5.003906-2.230469 7.058594-.390625l19.976562 17.875c1.058594.949219 1.664063 2.304688 1.664063 3.726563s-.605469 2.777343-1.664063 3.726562l-19.976562 17.875c-.953125.855469-2.144531 1.277344-3.332031 1.277344zm0 0"/><path d="m142.375 454.734375c-1.1875 0-2.378906-.421875-3.332031-1.277344l-19.972657-17.875c-1.0625-.949219-1.667968-2.304687-1.667968-3.726562s.605468-2.777344 1.667968-3.726563l19.972657-17.875c2.054687-1.84375 5.21875-1.664062 7.058593.390625 1.84375 2.058594 1.667969 5.21875-.390624 7.0625l-15.808594 14.148438 15.808594 14.152343c2.058593 1.839844 2.234374 5 .390624 7.058594-.988281 1.105469-2.355468 1.667969-3.726562 1.667969zm0 0"/><path d="m156.402344 455.140625c-.703125 0-1.414063-.144531-2.09375-.457031-2.507813-1.160156-3.601563-4.128906-2.445313-6.636719l16.835938-36.46875c1.152343-2.503906 4.121093-3.601563 6.632812-2.445313 2.507813 1.160157 3.601563 4.128907 2.445313 6.636719l-16.832032 36.46875c-.847656 1.828125-2.65625 2.902344-4.542968 2.902344zm0 0"/><path d="m164.988281 361.359375c-44.589843 0-83.070312-31.773437-91.496093-75.550781-.5-2.59375 1.105468-5.128906 3.664062-5.785156 7.230469-1.859376 14.378906-4.03125 21.253906-6.457032l1.078125-.53125c1.429688-.707031 3.117188-.683594 4.53125.058594 1.417969.742188 2.390625 2.117188 2.625 3.699219 4.226563 28.707031 29.308594 50.351562 58.347657 50.351562 29.035156 0 54.117187-21.644531 58.34375-50.351562.230468-1.582031 1.207031-2.957031 2.621093-3.699219 1.417969-.742188 3.101563-.765625 4.539063-.058594l2.09375 1.035156c6.609375 2.238282 13.40625 4.242188 20.207031 5.957032 2.570313.648437 4.191406 3.191406 3.691406 5.796875-8.441406 43.769531-46.917969 75.535156-91.5 75.535156zm-80.667969-72.898437c9.214844 36.714843 42.425782 62.898437 80.671876 62.898437 38.226562 0 71.429687-26.167969 80.664062-62.863281-4.582031-1.242188-9.140625-2.605469-13.628906-4.074219-7.410156 30.460937-35.191406 52.722656-67.035156 52.722656-31.882813 0-59.695313-22.316406-67.0625-52.835937-4.460938 1.492187-9.011719 2.882812-13.609376 4.152344zm0 0"/><path d="m200.296875 473.664062h-70.617187c-23.339844 0-42.328126-18.988281-42.328126-42.324218 0-23.339844 18.988282-42.328125 42.328126-42.328125h70.617187c23.335937 0 42.324219 18.988281 42.324219 42.328125 0 23.335937-18.988282 42.324218-42.324219 42.324218zm-70.617187-74.652343c-17.824219 0-32.324219 14.5-32.324219 32.324219 0 17.828124 14.5 32.328124 32.324219 32.328124h70.617187c17.824219 0 32.328125-14.5 32.328125-32.328124 0-17.824219-14.503906-32.324219-32.328125-32.324219zm0 0"/></g></svg>