<?xml version="1.0" standalone="no"?>
<!DOCTYPE svg PUBLIC "-//W3C//DTD SVG 20010904//EN"
 "http://www.w3.org/TR/2001/REC-SVG-20010904/DTD/svg10.dtd">
<svg version="1.0" xmlns="http://www.w3.org/2000/svg"
 width="523.000000pt" height="542.000000pt" viewBox="0 0 523.000000 542.000000"
 preserveAspectRatio="xMidYMid meet">

<g transform="translate(0.000000,542.000000) scale(0.100000,-0.100000)"
fill="#000000" stroke="none">
<path d="M2125 5231 c-16 -10 -51 -41 -76 -67 -91 -96 -1735 -1930 -1762
-1967 -42 -55 -104 -192 -129 -282 -20 -71 -22 -105 -23 -295 0 -197 2 -222
24 -297 13 -46 41 -117 62 -159 l40 -77 -46 -91 c-69 -137 -89 -231 -82 -386
6 -149 24 -224 83 -346 57 -119 162 -235 261 -287 56 -29 1084 -367 1117 -367
4 0 5 8 1 17 -22 53 -39 142 -49 258 l-11 130 -445 142 -445 142 -47 51 c-100
107 -126 328 -57 475 12 26 28 49 36 52 8 3 63 -9 121 -27 59 -18 132 -41 163
-50 l57 -18 -27 52 c-22 43 -26 64 -26 136 0 76 3 91 31 141 l31 57 -156 47
c-86 26 -167 54 -179 62 -56 35 -99 204 -89 345 10 121 39 176 112 209 80 37
124 29 557 -102 220 -66 402 -118 404 -116 3 2 -3 46 -13 98 -12 65 -17 148
-17 269 -1 152 2 185 22 253 41 144 94 217 190 264 108 53 275 32 450 -56 91
-46 231 -142 321 -220 l83 -71 50 42 c165 142 323 243 463 297 81 31 100 35
195 35 98 1 108 -1 158 -28 96 -54 157 -150 190 -303 l17 -79 550 649 c303
357 560 665 572 685 52 84 6 200 -92 236 -53 19 -2490 566 -2522 566 -21 0
-51 -9 -68 -19z m725 -797 c395 -96 644 -161 660 -173 17 -12 26 -29 28 -53 3
-32 -6 -46 -82 -136 -95 -111 -130 -132 -219 -132 -65 1 -1334 309 -1371 333
-20 14 -26 26 -26 55 0 32 11 50 75 127 105 124 149 149 250 139 28 -3 336
-75 685 -160z"/>
<path d="M4575 3934 c-104 -57 -151 -182 -149 -401 l1 -123 -349 -431 c-192
-236 -349 -435 -351 -440 -1 -5 46 -29 105 -53 59 -24 132 -58 163 -75 30 -17
58 -31 63 -31 4 0 68 74 141 165 80 99 140 165 151 165 14 0 18 -12 24 -57 5
-49 26 -141 51 -229 5 -15 -13 -44 -74 -119 l-80 -98 23 -31 c56 -74 71 -117
71 -206 0 -74 -4 -93 -29 -144 -74 -151 -285 -298 -591 -411 -55 -20 -101 -38
-102 -39 -1 -1 7 -52 18 -114 11 -61 23 -162 27 -223 l7 -112 545 663 c300
365 555 682 567 704 28 52 28 92 2 164 -58 154 -72 229 -73 397 -1 176 12 256
65 412 32 95 36 154 14 193 -19 34 -19 147 1 224 27 104 2 186 -74 235 -45 30
-127 37 -167 15z"/>
<path d="M1840 3359 c-98 -39 -147 -189 -137 -418 4 -120 32 -318 46 -333 3
-4 44 2 91 12 47 10 148 28 224 39 77 11 143 24 146 28 4 5 29 37 56 73 27 36
90 113 141 172 l93 107 -86 71 c-239 197 -462 293 -574 249z"/>
<path d="M3210 3352 c-123 -41 -279 -138 -418 -259 l-62 -55 41 -46 c55 -64
209 -251 234 -285 18 -25 30 -29 150 -46 72 -11 133 -16 136 -13 4 4 59 69
123 144 l116 138 0 60 c0 149 -38 285 -95 340 -32 31 -41 35 -103 37 -45 2
-85 -3 -122 -15z"/>
<path d="M2582 2892 c-12 -15 -54 -64 -92 -108 -39 -45 -70 -83 -70 -85 0 -2
87 -4 194 -4 145 0 193 3 188 12 -14 23 -183 213 -190 212 -4 0 -17 -12 -30
-27z"/>
<path d="M2368 2532 c-42 -4 -78 -9 -81 -12 -18 -22 -68 -102 -65 -105 9 -9
410 -124 450 -129 27 -3 70 -17 98 -31 56 -28 117 -32 159 -11 31 16 111 100
111 117 0 14 -82 140 -103 157 -18 15 -435 25 -569 14z"/>
<path d="M2010 2491 l-34 -6 42 -11 c38 -10 44 -9 53 7 11 21 5 22 -61 10z"/>
<path d="M3597 2382 c-8 -9 -24 -48 -37 -87 -12 -38 -45 -127 -72 -197 l-51
-128 49 -123 49 -122 109 135 c60 74 156 192 214 263 l104 127 -104 49 c-57
27 -135 61 -174 75 -67 23 -73 24 -87 8z"/>
<path d="M1059 2074 c-67 -97 -47 -179 67 -283 91 -84 172 -125 353 -181 90
-28 165 -49 165 -48 1 2 14 41 29 88 15 47 42 124 61 170 24 60 31 87 23 91
-7 4 -156 50 -332 104 -176 54 -323 99 -327 101 -4 3 -21 -17 -39 -42z"/>
<path d="M3972 1844 c-107 -130 -191 -238 -189 -241 6 -6 157 70 225 113 72
46 139 110 174 163 34 55 38 120 8 169 -11 17 -21 32 -22 32 -2 0 -90 -106
-196 -236z"/>
<path d="M3087 1755 c-87 -107 -163 -195 -170 -195 -7 0 -61 16 -122 35 -60
20 -146 40 -190 45 -60 7 -100 20 -160 49 -79 39 -383 137 -393 127 -6 -7 91
-180 172 -304 77 -120 51 -112 391 -112 330 0 315 -4 374 84 59 88 140 225
188 319 43 84 73 147 70 147 -2 0 -74 -88 -160 -195z"/>
<path d="M1840 1645 c-23 -69 -41 -128 -38 -130 11 -11 278 -88 278 -80 0 2
-30 52 -66 112 -36 59 -79 134 -95 166 -16 31 -31 57 -33 57 -2 0 -22 -56 -46
-125z"/>
<path d="M3294 1683 c-26 -48 -69 -123 -96 -166 -26 -43 -48 -80 -48 -81 0 -2
37 3 83 11 80 13 83 15 129 66 26 28 48 60 48 69 0 15 -56 178 -64 186 -2 2
-25 -37 -52 -85z"/>
<path d="M3097 1267 c-65 -9 -70 -12 -103 -56 l-36 -46 37 -3 c45 -4 114 35
153 86 13 17 23 31 21 31 -2 -1 -35 -6 -72 -12z"/>
<path d="M3260 976 c-129 -158 -236 -290 -238 -294 -3 -10 158 -87 213 -101
22 -6 67 -11 99 -11 59 0 61 1 107 50 35 37 51 65 64 112 24 82 31 261 16 382
-22 173 5 187 -261 -138z"/>
<path d="M2740 1225 c39 -13 47 -12 60 0 13 13 7 15 -45 14 l-60 0 45 -14z"/>
<path d="M1704 883 c15 -159 49 -252 107 -294 61 -43 182 -27 324 44 76 37
198 117 190 125 -5 5 -613 202 -623 202 -3 0 -2 -35 2 -77z"/>
<path d="M2480 669 c-66 -56 -184 -133 -277 -180 l-94 -47 48 -15 c706 -228
809 -259 851 -253 60 8 103 41 188 145 l75 90 -28 7 c-101 22 -199 63 -305
128 -56 33 -126 62 -248 101 -94 30 -172 55 -173 55 -1 -1 -18 -14 -37 -31z"/>
</g>
</svg>
