<?xml version="1.0" encoding="iso-8859-1"?>
<!-- Generator: Adobe Illustrator 16.0.0, SVG Export Plug-In . SVG Version: 6.00 Build 0)  -->
<!DOCTYPE svg PUBLIC "-//W3C//DTD SVG 1.1//EN" "http://www.w3.org/Graphics/SVG/1.1/DTD/svg11.dtd">
<svg version="1.1" id="Capa_1" xmlns="http://www.w3.org/2000/svg" xmlns:xlink="http://www.w3.org/1999/xlink" x="0px" y="0px"
	 width="31.273px" height="31.273px" viewBox="0 0 31.273 31.273" style="enable-background:new 0 0 31.273 31.273;"
	 xml:space="preserve">
<g>
	<path d="M26.228,1.102H14.042l-0.036-0.094C13.772,0.401,13.188,0,12.537,0H5.324C3.957,0,2.808,1.085,2.808,2.452V28.82
		c0,1.365,1.148,2.453,2.516,2.453h18.761c0.295,0,0.57-0.146,0.736-0.387c0.166-0.242,0.203-0.551,0.1-0.824h1.308
		c1.265,0,2.236-1.021,2.236-2.285V3.395C28.464,2.131,27.492,1.102,26.228,1.102z M25.933,27.42h-1.99l-1.115-2.947
		c0.609-0.111,1.068-0.629,1.068-1.27c0-0.723-0.584-1.289-1.309-1.289h-0.729l-0.912-2.422h1.863c0.723,0,1.307-0.6,1.307-1.322
		s-0.584-1.32-1.307-1.32h-2.84l-0.912-2.423h3.752c0.723,0,1.307-0.545,1.307-1.266c0-0.723-0.584-1.268-1.307-1.268h-4.729
		l-0.912-2.421h5.641c0.723,0,1.307-0.6,1.307-1.322c0-0.721-0.584-1.32-1.307-1.32h-6.617l-1.174-3.084h10.914V27.42z"/>
</g>
<g>
</g>
<g>
</g>
<g>
</g>
<g>
</g>
<g>
</g>
<g>
</g>
<g>
</g>
<g>
</g>
<g>
</g>
<g>
</g>
<g>
</g>
<g>
</g>
<g>
</g>
<g>
</g>
<g>
</g>
</svg>
