<?xml version="1.0" encoding="iso-8859-1"?>
<!-- Generator: Adobe Illustrator 16.0.0, SVG Export Plug-In . SVG Version: 6.00 Build 0)  -->
<!DOCTYPE svg PUBLIC "-//W3C//DTD SVG 1.1//EN" "http://www.w3.org/Graphics/SVG/1.1/DTD/svg11.dtd">
<svg version="1.1" id="Capa_1" xmlns="http://www.w3.org/2000/svg" xmlns:xlink="http://www.w3.org/1999/xlink" x="0px" y="0px"
	 width="548.801px" height="548.801px" viewBox="0 0 548.801 548.801" style="enable-background:new 0 0 548.801 548.801;"
	 xml:space="preserve">
<g>
	<g>
		<polygon points="293.525,5.451 296.959,0 235.596,0 239.038,5.451 		"/>
		<path d="M390.738,0h-85.154c0.668,1.425,0.707,3.127-0.201,4.562l-5.174,8.214c-0.869,1.396-2.4,2.238-4.045,2.238h-59.765
			c-1.645,0-3.166-0.841-4.045-2.228l-5.183-8.214c-0.908-1.434-0.87-3.136-0.201-4.561h-68.898c-21.124,0-38.25,17.126-38.25,38.25
			v472.291c0,21.125,17.126,38.25,38.25,38.25h232.656c21.123,0,38.25-17.125,38.25-38.25V38.25C428.988,17.126,411.861,0,390.738,0
			z M346.244,26.651c4.062,0,7.361,3.29,7.361,7.354s-3.299,7.344-7.361,7.344c-4.084,0-7.373-3.289-7.373-7.344
			C338.871,29.931,342.16,26.651,346.244,26.651z M310.871,28.602h11.322c2.984,0,5.393,2.419,5.393,5.403s-2.418,5.393-5.393,5.393
			h-11.322c-2.982,0-5.393-2.419-5.393-5.393C305.469,31.021,307.889,28.602,310.871,28.602z M190.135,495.596H185l0.516,0.967
			c0.622,1.156,0.201,2.6-0.975,3.23c-0.364,0.201-0.756,0.287-1.128,0.287c-0.861,0-1.683-0.459-2.113-1.262l-2.324-4.312
			c-0.402-0.736-0.383-1.635,0.057-2.361l2.945-4.896c0.688-1.129,2.152-1.492,3.29-0.812c1.119,0.668,1.492,2.15,0.813,3.279
			l-0.66,1.1h4.724c1.329,0,2.391,1.07,2.391,2.391C192.526,494.525,191.455,495.596,190.135,495.596z M272.363,500.674
			l-5.661-1.357v-4.764h5.661V500.674z M272.363,493.559h-5.661v-5.135l5.661-0.984V493.559z M281.811,502.375l-8.271-2.15v-5.682
			h8.271V502.375z M281.811,493.559h-8.271v-6.129l8.271-1.158V493.559z M363.246,500.453c-1.148,0-2.191-0.354-3.137-0.852
			l-2.955,2.314c-0.43,0.346-0.957,0.518-1.473,0.518c-0.699,0-1.396-0.316-1.875-0.918c-0.812-1.033-0.631-2.545,0.402-3.357
			l2.648-2.084c-0.297-0.785-0.506-1.625-0.506-2.525c0-3.795,3.088-6.895,6.895-6.895c3.785,0,6.895,3.09,6.895,6.895
			C370.141,497.355,367.041,500.453,363.246,500.453z M394.85,462.299H153.97V63.065h240.87v399.234H394.85z"/>
		<circle cx="363.246" cy="493.559" r="2.113"/>
	</g>
</g>
<g>
</g>
<g>
</g>
<g>
</g>
<g>
</g>
<g>
</g>
<g>
</g>
<g>
</g>
<g>
</g>
<g>
</g>
<g>
</g>
<g>
</g>
<g>
</g>
<g>
</g>
<g>
</g>
<g>
</g>
</svg>
